<svg width="1080" height="1080" viewBox="0 0 1080 1080" fill="none" xmlns="http://www.w3.org/2000/svg">
<path d="M311.61 394.47C294.651 359.673 252.577 345.156 217.635 362.045C182.693 378.933 168.115 420.832 185.074 455.628L297.133 685.547C308.867 709.62 333.351 724.932 360.222 725C387.095 725.067 411.656 709.881 423.513 685.866L537.027 455.948C554.163 421.238 539.8 379.266 504.945 362.201C470.089 345.136 427.942 359.44 410.805 394.149L360.808 495.414L311.61 394.47Z" fill="currentColor"/>
<path d="M783.392 394.47C771.657 370.395 747.171 355.084 720.301 355.016C693.432 354.948 668.867 370.135 657.012 394.149L543.497 624.068C532.779 645.775 534.069 671.452 546.909 691.985C559.747 712.518 582.318 725 606.608 725H832.183C856.408 725 878.927 712.583 891.787 692.136C904.642 671.689 906.028 646.091 895.448 624.388L783.392 394.47Z" fill="currentColor"/>
</svg>
